<?xml version="1.0" standalone="no"?>
<!DOCTYPE svg PUBLIC "-//W3C//DTD SVG 20010904//EN"
 "http://www.w3.org/TR/2001/REC-SVG-20010904/DTD/svg10.dtd">
<svg version="1.0" xmlns="http://www.w3.org/2000/svg"
 width="700.000000pt" height="700.000000pt" viewBox="0 0 700.000000 700.000000"
 preserveAspectRatio="xMidYMid meet">
<metadata>
Created by potrace 1.14, written by Peter Selinger 2001-2017
</metadata>
<g transform="translate(0.000000,700.000000) scale(0.100000,-0.100000)"
fill="#000000" stroke="none">
<path d="M2320 6284 c-30 -8 -84 -29 -120 -47 -59 -29 -159 -126 -1061 -1027
-548 -547 -1013 -1017 -1033 -1044 -77 -101 -111 -223 -102 -353 4 -45 13
-102 21 -125 45 -130 23 -106 1055 -1141 542 -543 1008 -1005 1035 -1026 114
-89 213 -121 357 -116 110 4 181 26 271 85 73 48 2026 1999 2070 2068 57 88
78 161 82 282 4 98 -10 162 -57 258 -30 62 -108 143 -1048 1083 -722 722
-1029 1024 -1065 1043 -90 50 -153 68 -255 71 -59 2 -116 -2 -150 -11z m250
-803 c50 -26 76 -51 111 -107 20 -33 24 -52 24 -119 0 -91 -15 -132 -71 -189
-56 -58 -89 -70 -179 -71 -93 0 -135 17 -195 77 -83 85 -94 223 -25 326 26 38
85 84 130 100 49 19 154 10 205 -17z m-1439 -1383 c181 -62 240 -295 108 -426
-59 -60 -101 -77 -189 -77 -85 0 -128 16 -183 70 -55 54 -72 99 -71 190 0 82
6 99 54 163 56 76 187 113 281 80z m1433 -13 c94 -45 141 -124 141 -235 0
-111 -46 -189 -141 -236 -51 -25 -184 -26 -230 -2 -96 52 -151 153 -141 262 9
108 64 180 172 223 43 18 152 11 199 -12z m1400 0 c94 -45 141 -124 141 -235
0 -112 -47 -189 -144 -237 -50 -25 -172 -25 -223 0 -52 26 -101 77 -128 133
-18 41 -22 61 -18 119 3 38 12 85 22 102 24 47 94 110 140 127 54 20 159 16
210 -9z m-1394 -1404 c50 -26 76 -51 111 -107 20 -33 24 -52 24 -119 0 -93
-16 -134 -77 -194 -50 -50 -120 -75 -196 -69 -176 13 -284 181 -226 350 19 56
87 127 146 150 60 25 159 20 218 -11z"/>
<path d="M5183 4187 c44 -115 61 -207 61 -337 1 -194 -46 -347 -157 -510 -43
-63 -32 -51 -851 -870 l-736 -735 1 -290 c1 -215 5 -304 15 -345 48 -186 196
-335 384 -384 47 -13 249 -14 1370 -13 l1315 2 59 23 c87 33 139 66 200 128
69 69 109 138 135 234 21 73 21 91 21 1365 0 1428 3 1348 -65 1471 -63 113
-169 202 -294 248 -54 20 -80 21 -760 24 -606 2 -703 1 -698 -11z m187 -1506
c151 -78 188 -286 71 -407 -58 -61 -103 -79 -191 -79 -88 0 -130 17 -189 77
-71 70 -91 198 -47 290 26 53 90 114 139 132 61 22 161 16 217 -13z"/>
</g>
</svg>
